<svg id="Group_1417" data-name="Group 1417" xmlns="http://www.w3.org/2000/svg" width="66.862" height="66.862" viewBox="0 0 66.862 66.862">
  <path id="Path_164" data-name="Path 164" d="M33.431,66.862A33.431,33.431,0,1,1,66.862,33.431,33.469,33.469,0,0,1,33.431,66.862Zm0-64.836a31.4,31.4,0,1,0,31.4,31.4A31.44,31.44,0,0,0,33.431,2.026Z" fill="#919191"/>
  <circle id="Ellipse_48" data-name="Ellipse 48" cx="4.306" cy="4.306" r="4.306" transform="translate(19.404 19.866)" fill="#919191"/>
  <circle id="Ellipse_49" data-name="Ellipse 49" cx="4.306" cy="4.306" r="4.306" transform="translate(39.919 19.866)" fill="#919191"/>
  <path id="Path_165" data-name="Path 165" d="M10.839,28.492a1.012,1.012,0,0,1-.861-1.544,15.767,15.767,0,0,1,26.735-.164A1.012,1.012,0,0,1,35,27.868a13.739,13.739,0,0,0-23.3.146A1.019,1.019,0,0,1,10.839,28.492Z" transform="translate(10.083 19.968)" fill="#919191"/>
</svg>
